<?xml version="1.0" standalone="no"?>
<!DOCTYPE svg PUBLIC "-//W3C//DTD SVG 20010904//EN"
 "http://www.w3.org/TR/2001/REC-SVG-20010904/DTD/svg10.dtd">
<svg version="1.0" xmlns="http://www.w3.org/2000/svg"
 width="1406.000000pt" height="245.000000pt" viewBox="0 0 1406.000000 245.000000"
 preserveAspectRatio="xMidYMid meet">

<g transform="translate(0.000000,245.000000) scale(0.100000,-0.100000)"
fill="#000000" stroke="none">
<path d="M1255 2324 c-48 -12 -75 -28 -91 -51 -15 -23 -16 -81 -9 -682 7 -704
4 -788 -38 -882 -54 -123 -133 -170 -287 -172 -97 -1 -158 20 -204 69 -79 86
-105 302 -107 884 0 184 -4 437 -7 562 -6 199 -9 229 -25 245 -15 16 -37 18
-165 18 -135 0 -151 -2 -196 -24 l-49 -24 7 -451 c10 -644 23 -982 41 -1089
59 -337 196 -514 455 -584 94 -26 436 -25 530 1 189 52 309 156 409 353 49 99
60 165 72 443 11 249 6 1055 -8 1243 -7 98 -14 111 -71 127 -41 12 -226 22
-257 14z"/>
<path d="M6045 2319 c-90 -18 -230 -94 -294 -158 -134 -137 -192 -333 -211
-721 -17 -350 -32 -1214 -21 -1242 15 -39 64 -56 186 -63 150 -8 206 2 223 39
12 24 26 315 32 629 l0 27 309 0 308 0 5 -307 c4 -181 10 -319 16 -335 19 -46
43 -53 214 -53 199 0 196 -2 208 141 13 138 12 1178 -1 1353 -21 293 -57 391
-198 532 -111 110 -156 136 -257 149 -116 15 -461 21 -519 9z m358 -420 c62
-16 121 -82 147 -164 27 -90 50 -254 50 -372 l0 -93 -320 0 -321 0 6 90 c3 50
7 132 10 183 6 100 29 216 51 259 32 63 89 98 179 111 39 6 150 -2 198 -14z"/>
<path d="M2268 2311 l-248 -6 -26 -27 c-27 -27 -27 -27 -36 -245 -10 -246 -4
-1804 7 -1845 11 -42 52 -53 205 -53 155 0 183 10 194 67 3 18 9 212 12 431
l7 399 31 -6 c70 -14 73 -19 230 -369 46 -104 104 -221 127 -260 52 -86 155
-189 224 -222 72 -36 184 -50 284 -36 146 19 166 43 166 190 0 79 -4 102 -20
131 -22 36 -41 44 -168 68 -98 19 -128 53 -247 286 -92 180 -99 215 -50 244
16 9 69 40 117 67 165 95 250 197 292 355 43 160 37 298 -20 476 -50 156 -103
211 -311 323 l-77 41 -223 -2 c-123 -1 -334 -4 -470 -7z m389 -401 c143 -10
169 -18 219 -72 50 -52 67 -96 72 -179 8 -131 -37 -195 -153 -219 -86 -17
-399 -30 -407 -16 -9 14 -10 371 -2 444 l7 52 66 0 c36 -1 125 -5 198 -10z"/>
<path d="M7487 2311 c-59 -12 -69 -29 -78 -128 -8 -79 -28 -1397 -29 -1845 l0
-176 53 -13 c30 -7 112 -12 195 -12 120 0 146 3 160 17 15 15 18 75 25 579 4
309 11 575 15 591 7 27 13 19 98 -125 358 -605 574 -960 619 -1015 l36 -44
174 0 173 0 8 188 c11 236 12 1887 1 1925 -11 40 -52 53 -194 61 -142 8 -173
-2 -193 -56 -16 -45 -28 -321 -31 -683 -1 -165 -4 -347 -8 -403 l-6 -104 -142
234 c-78 128 -196 328 -264 443 -109 187 -237 401 -305 507 -17 26 -35 40 -61
47 -54 14 -201 21 -246 12z"/>
<path d="M10472 2310 c-93 -3 -167 -11 -173 -17 -6 -6 -15 -44 -20 -84 -15
-126 -29 -828 -29 -1447 l0 -593 35 -15 c40 -17 315 -20 345 -4 39 21 43 59
48 487 l4 412 404 3 c371 3 405 4 421 21 16 16 18 38 18 187 0 122 -3 172 -13
182 -15 15 -243 26 -584 27 l-248 1 0 215 0 215 383 1 c210 0 400 3 421 7 50
9 54 21 62 207 9 198 24 185 -232 196 -225 9 -600 9 -842 -1z"/>
<path d="M12817 2311 c-139 -5 -160 -8 -172 -25 -20 -26 -28 -108 -24 -240 5
-132 10 -143 81 -157 23 -4 121 -8 216 -9 l172 0 0 -829 c0 -456 3 -842 6
-859 9 -45 51 -55 214 -55 164 1 185 8 194 60 3 21 11 405 17 853 6 448 14
817 16 820 2 3 92 8 198 12 107 4 203 12 214 18 33 17 44 82 38 220 -6 149
-15 176 -66 184 -55 9 -925 15 -1104 7z"/>
<path d="M3826 2300 c-22 -4 -47 -17 -57 -31 -18 -23 -19 -68 -19 -964 1 -517
5 -981 9 -1032 6 -58 16 -101 27 -119 l18 -27 396 6 c410 7 517 15 606 48 176
66 337 246 373 417 16 76 14 200 -5 263 -38 127 -94 207 -201 286 -40 29 -73
55 -73 57 0 2 44 48 98 102 150 153 200 268 188 434 -7 110 -28 186 -76 285
-60 124 -155 207 -299 259 -53 20 -80 21 -501 23 -245 1 -463 -2 -484 -7z
m785 -417 c50 -32 75 -61 105 -128 60 -129 27 -273 -72 -317 -50 -21 -206 -38
-371 -38 l-103 0 0 243 c0 133 4 247 8 254 10 17 48 19 233 12 145 -4 170 -8
200 -26z m-86 -894 c131 -13 146 -18 178 -61 72 -95 59 -219 -31 -300 -54 -49
-121 -68 -263 -75 -130 -6 -213 7 -229 37 -6 11 -10 106 -10 214 0 177 2 195
18 200 22 6 196 -2 337 -15z"/>
<path d="M11958 2304 c-9 -3 -19 -13 -23 -22 -16 -38 -24 -367 -31 -1219 l-7
-900 54 -13 c31 -8 115 -14 197 -14 127 -1 145 1 157 17 9 13 14 101 20 350 8
426 3 1747 -8 1769 -5 9 -16 20 -25 24 -19 8 -308 15 -334 8z"/>
</g>
</svg>
