<?xml version="1.0" standalone="no"?>
<!DOCTYPE svg PUBLIC "-//W3C//DTD SVG 20010904//EN"
 "http://www.w3.org/TR/2001/REC-SVG-20010904/DTD/svg10.dtd">
<svg version="1.0" xmlns="http://www.w3.org/2000/svg"
 width="1200.000000pt" height="1200.000000pt" viewBox="0 0 1200.000000 1200.000000"
 preserveAspectRatio="xMidYMid meet">

<g transform="translate(0.000000,1200.000000) scale(0.100000,-0.100000)"
fill="#000000" stroke="none">
<path d="M7600 9552 c-21 -11 -51 -43 -76 -83 -23 -35 -59 -84 -81 -109 -88
-99 -188 -266 -243 -405 -91 -231 -199 -733 -200 -930 0 -91 25 -306 50 -420
31 -142 99 -658 110 -832 23 -362 -51 -654 -297 -1165 l-66 -138 -165 0 c-127
0 -163 3 -159 13 3 6 39 86 80 177 124 272 199 504 238 730 19 104 16 405 -5
560 -9 69 -29 229 -45 355 -17 127 -39 268 -50 315 -61 260 -74 565 -33 779
12 63 20 116 18 118 -2 2 -51 13 -109 25 l-105 21 -13 103 c-9 75 -17 109 -31
124 -10 11 -23 20 -27 20 -5 0 -39 -18 -76 -40 -202 -123 -550 -228 -860 -260
-371 -38 -807 -15 -993 52 -29 11 -35 10 -54 -9 -21 -21 -21 -25 -10 -117 7
-52 12 -101 12 -109 0 -9 -53 -41 -132 -79 -249 -121 -315 -172 -683 -528
-858 -831 -863 -835 -904 -832 -42 4 -44 2 -210 -183 -76 -84 -91 -108 -84
-136 3 -10 242 -233 531 -496 659 -600 629 -573 656 -573 16 0 47 25 98 78
159 165 180 191 183 222 1 20 25 59 71 117 l69 87 27 -219 c14 -121 29 -241
32 -267 l7 -48 -1154 -2 -1154 -3 254 -370 c139 -203 258 -379 264 -391 9 -18
-14 -57 -183 -305 -107 -156 -227 -332 -266 -391 l-72 -108 1249 0 1250 0 6
-32 c3 -18 28 -222 56 -453 27 -231 57 -444 65 -474 19 -67 64 -115 124 -131
78 -21 216 -12 668 44 244 30 445 56 446 58 1 2 49 186 105 410 57 224 113
445 125 490 l23 83 184 3 184 2 -109 -440 -110 -440 21 -28 c27 -37 85 -75
163 -108 36 -15 143 -63 239 -106 340 -153 723 -249 1236 -308 445 -51 820
-50 1065 4 63 14 185 37 270 52 190 32 298 65 330 99 l24 26 -18 352 c-10 194
-26 462 -37 597 -10 135 -19 257 -19 273 l0 27 471 0 470 0 -117 173 c-65 94
-185 270 -266 391 -82 120 -147 224 -145 230 5 12 321 477 464 684 l64 92
-619 0 -619 0 -22 103 c-39 183 -51 279 -57 432 -11 286 37 467 226 840 63
127 131 252 149 278 47 68 161 311 209 444 68 186 82 297 89 673 4 235 2 320
-11 416 -26 197 -72 353 -137 464 -14 25 -31 68 -38 95 -17 71 -50 125 -91
146 -46 25 -121 25 -151 0 -27 -21 -27 -20 28 -231 l31 -115 -41 -320 c-22
-176 -41 -322 -43 -324 -2 -2 -38 4 -80 14 -93 22 -193 16 -277 -15 -142 -53
-324 -209 -441 -377 -32 -46 -61 -83 -65 -83 -4 0 -15 26 -25 58 -23 72 -92
212 -142 289 -49 73 -155 186 -212 225 -80 55 -153 78 -252 80 -75 1 -90 4
-90 17 0 9 16 151 36 316 40 330 35 313 138 490 72 124 59 166 -55 181 -32 4
-53 0 -79 -14z m-1275 -903 c4 -5 10 -35 14 -65 7 -50 6 -57 -18 -80 -47 -48
-184 -107 -341 -148 -451 -118 -1131 -166 -1387 -97 -69 19 -86 39 -91 109 -6
80 6 87 107 61 232 -59 719 -49 1081 22 193 38 449 124 545 184 42 26 80 32
90 14z m-3588 -1941 c90 -79 931 -843 956 -869 15 -16 27 -34 27 -39 0 -18
-132 -150 -150 -150 -9 0 -224 188 -476 418 -553 503 -544 494 -544 516 0 18
126 156 141 156 5 0 25 -15 46 -32z m1993 -1655 l0 -276 29 40 c37 51 90 76
173 81 160 10 264 -79 298 -256 19 -94 8 -283 -20 -355 -47 -122 -128 -177
-276 -185 -76 -4 -98 -1 -137 16 -29 13 -51 31 -59 47 l-12 27 -11 -39 -11
-38 -179 0 c-163 0 -180 2 -183 18 -3 14 4 17 42 17 l46 0 0 569 0 570 -42 3
c-31 2 -44 8 -46 21 -3 16 11 17 192 17 l196 0 0 -277z m4020 229 c49 -24 72
-73 67 -140 -6 -90 -66 -142 -162 -142 -94 0 -155 51 -162 137 -5 59 18 108
66 140 43 29 138 32 191 5z m-5750 -52 c0 -17 -7 -20 -50 -20 l-51 0 3 -442
c3 -406 5 -447 22 -485 38 -89 115 -128 242 -121 82 4 137 33 178 96 51 77 56
123 56 554 l0 398 -50 0 c-44 0 -50 3 -50 20 0 20 5 21 118 18 96 -2 117 -6
117 -18 0 -10 -13 -16 -42 -18 l-43 -3 0 -377 c0 -207 -5 -408 -10 -445 -21
-141 -86 -223 -210 -264 -76 -25 -320 -26 -400 -1 -112 35 -186 104 -226 213
-17 45 -19 89 -22 463 l-3 412 -45 0 c-37 0 -44 3 -44 20 0 19 7 20 255 20
248 0 255 -1 255 -20z m5323 -102 c14 -252 6 -272 -57 -134 -70 155 -138 205
-293 214 l-83 5 0 -263 0 -263 65 5 c97 8 159 63 187 166 7 23 18 42 25 42 10
0 13 -50 13 -240 0 -207 -2 -240 -15 -240 -8 0 -15 7 -15 15 0 31 -43 128 -71
160 -30 34 -91 55 -159 55 l-30 0 0 -245 0 -245 100 0 c93 0 100 -1 100 -20 0
-20 -7 -20 -305 -20 -298 0 -305 0 -305 20 0 17 7 20 45 20 l45 0 0 525 0 525
-45 0 c-38 0 -45 3 -45 20 0 20 7 20 418 20 l419 0 6 -122z m987 -98 l0 -140
105 0 c87 0 105 -3 105 -15 0 -12 -18 -15 -105 -15 l-105 0 0 -315 c0 -367 2
-375 72 -375 33 0 46 6 72 34 30 31 56 92 56 130 0 9 7 16 15 16 39 0 2 -130
-52 -184 -52 -52 -115 -70 -228 -64 -144 8 -210 55 -234 169 -6 29 -11 165
-11 319 l0 270 -45 0 c-33 0 -45 4 -45 15 0 11 12 15 45 15 l45 0 0 105 0 105
28 7 c115 29 250 61 265 62 15 1 17 -12 17 -139z m-5043 -147 c46 -34 67 -79
67 -147 1 -113 -49 -162 -156 -154 -70 5 -105 33 -115 90 -9 60 2 88 36 88 46
0 59 62 17 81 -32 15 -78 -10 -111 -59 -46 -70 -55 -135 -55 -394 l0 -238 55
0 c42 0 55 -3 55 -15 0 -13 -34 -15 -250 -15 -216 0 -250 2 -250 15 0 11 12
15 45 15 l45 0 0 355 0 355 -45 0 c-33 0 -45 4 -45 15 0 13 28 15 195 15 l195
0 0 -62 0 -62 29 46 c45 70 104 99 198 95 45 -2 71 -9 90 -24z m1578 12 c72
-19 118 -53 147 -108 21 -39 23 -58 28 -303 5 -272 9 -294 50 -294 27 0 41 24
53 95 7 44 16 65 25 65 21 0 7 -102 -21 -159 -36 -74 -62 -86 -180 -86 -116 0
-168 18 -196 67 -9 15 -18 28 -21 28 -3 0 -13 -14 -22 -30 -25 -43 -88 -70
-169 -70 -131 0 -210 51 -230 151 -34 165 77 249 329 249 l84 0 -4 158 c-5
191 -15 222 -77 222 -49 0 -74 -26 -69 -71 2 -24 9 -35 23 -38 27 -5 35 -19
35 -66 0 -104 -109 -165 -215 -121 -43 18 -65 61 -65 126 0 98 55 157 175 186
73 18 249 17 320 -1z m1054 5 c59 -17 100 -52 129 -110 l27 -55 3 -292 3 -293
45 0 c32 0 44 -4 44 -15 0 -13 -32 -15 -230 -15 -198 0 -230 2 -230 15 0 11
11 15 36 15 l36 0 -3 313 c-4 278 -6 316 -22 340 -34 52 -96 25 -138 -60 -23
-46 -24 -57 -27 -320 l-3 -273 35 0 c25 0 36 -4 36 -15 0 -13 -32 -15 -230
-15 -198 0 -230 2 -230 15 0 11 12 15 45 15 l45 0 0 355 0 355 -45 0 c-33 0
-45 4 -45 15 0 13 28 15 195 15 l195 0 0 -62 0 -63 17 33 c19 39 69 82 115 99
41 14 152 16 197 3z m1901 -380 l0 -370 50 0 c38 0 50 -4 50 -15 0 -13 -34
-15 -245 -15 -211 0 -245 2 -245 15 0 11 12 15 45 15 l45 0 0 355 0 355 -45 0
c-33 0 -45 4 -45 15 0 13 28 15 195 15 l195 0 0 -370z"/>
<path d="M4802 4805 c-57 -47 -66 -88 -70 -311 -4 -223 3 -271 48 -316 52 -52
107 -29 132 54 18 61 18 489 0 541 -22 61 -62 73 -110 32z"/>
<path d="M5647 4440 c-31 -37 -43 -116 -31 -203 8 -56 11 -62 33 -62 15 0 32
11 45 28 18 24 22 45 25 148 l3 119 -25 0 c-16 0 -35 -11 -50 -30z"/>
</g>
</svg>
